# This file uses centimeters as units for non-parametric coordinates.

mtllib rocket.mtl
v -1.568087 0.000000 -0.000000
v -1.259988 0.000000 0.074730
v -1.259988 -0.052842 0.052842
v -1.259988 -0.074730 -0.000000
v -1.259988 -0.052842 -0.052842
v -1.259988 0.000000 -0.074730
v -1.259988 0.052842 -0.052842
v -1.259988 0.074730 -0.000000
v -1.259988 0.052842 0.052842
v -0.953560 0.000000 0.113050
v -0.953560 -0.079938 0.079938
v -0.953560 -0.113050 -0.000000
v -0.953560 -0.079938 -0.079938
v -0.953560 0.000000 -0.113050
v -0.953560 0.079938 -0.079938
v -0.953560 0.113050 -0.000000
v -0.953560 0.079938 0.079938
v 1.568087 0.000000 0.113050
v 1.568087 -0.079938 0.079938
v 1.568087 -0.113050 0.000000
v 1.568087 -0.079938 -0.079938
v 1.568087 0.000000 -0.113050
v 1.568087 0.079938 -0.079938
v 1.568087 0.113050 0.000000
v 1.568087 0.079938 0.079938
v 1.513137 0.000000 0.000000
v 1.095954 0.091907 -0.037568
v 1.230934 0.301702 0.000000
v 1.556231 0.301702 0.000000
v 1.514142 0.091907 -0.037568
v 1.095954 0.091907 0.037568
v 1.514142 0.091907 0.037568
v 0.874208 0.100961 0.000000
v -0.932761 0.091907 -0.000000
v -0.706607 0.218993 -0.000000
v -0.617233 0.218993 -0.000000
v -0.659322 0.091907 -0.020155
v -0.659322 0.091907 0.020155
v 1.095954 -0.037568 -0.091907
v 1.230934 0.000000 -0.301702
v 1.556232 0.000000 -0.301702
v 1.514142 -0.037568 -0.091907
v 1.095954 0.037568 -0.091907
v 1.514142 0.037568 -0.091907
v 0.874208 0.000000 -0.100961
v -0.932761 0.000000 -0.091907
v -0.706607 0.000000 -0.218993
v -0.617233 0.000000 -0.218993
v -0.659322 -0.020155 -0.091907
v -0.659322 0.020155 -0.091907
v 1.095954 -0.091907 0.037568
v 1.230934 -0.301702 0.000000
v 1.556231 -0.301702 0.000000
v 1.514142 -0.091907 0.037568
v 1.095954 -0.091907 -0.037568
v 1.514142 -0.091907 -0.037568
v 0.874208 -0.100961 0.000000
v -0.932761 -0.091907 -0.000000
v -0.706607 -0.218993 -0.000000
v -0.617233 -0.218993 -0.000000
v -0.659322 -0.091907 0.020155
v -0.659322 -0.091907 -0.020155
v 1.095954 0.037568 0.091907
v 1.230934 0.000000 0.301702
v 1.556231 0.000000 0.301702
v 1.514142 0.037568 0.091907
v 1.095954 -0.037568 0.091907
v 1.514142 -0.037568 0.091907
v 0.874208 0.000000 0.100961
v -0.932761 0.000000 0.091907
v -0.706607 0.000000 0.218993
v -0.617233 0.000000 0.218993
v -0.659322 0.020155 0.091907
v -0.659322 -0.020155 0.091907
v -1.259988 -0.052842 0.052842
v -1.259988 -0.052842 -0.052842
v -1.259988 0.052842 -0.052842
v -1.259988 0.052842 0.052842
v -1.259988 -0.052842 0.052842
v -0.953560 -0.079938 0.079938
v -0.953560 -0.079938 0.079938
v -1.259988 -0.052842 -0.052842
v -0.953560 -0.079938 -0.079938
v -0.953560 -0.079938 -0.079938
v -1.259988 0.052842 -0.052842
v -0.953560 0.079938 -0.079938
v -0.953560 0.079938 -0.079938
v -1.259988 0.052842 0.052842
v -0.953560 0.079938 0.079938
v -0.953560 0.079938 0.079938
v -0.953560 0.000000 0.113050
v -0.953560 0.000000 0.113050
v -0.953560 -0.079938 0.079938
v -0.953560 -0.079938 0.079938
v -0.953560 -0.113050 -0.000000
v -0.953560 -0.113050 -0.000000
v -0.953560 -0.113050 -0.000000
v 1.568087 -0.113050 0.000000
v -0.953560 -0.113050 -0.000000
v -0.953560 -0.079938 -0.079938
v -0.953560 -0.079938 -0.079938
v -0.953560 0.000000 -0.113050
v -0.953560 0.000000 -0.113050
v -0.953560 0.000000 -0.113050
v -0.953560 0.000000 -0.113050
v -0.953560 0.079938 -0.079938
v -0.953560 0.079938 -0.079938
v -0.953560 0.113050 -0.000000
v -0.953560 0.113050 -0.000000
v -0.953560 0.113050 -0.000000
v -0.953560 0.113050 -0.000000
v -0.953560 0.079938 0.079938
v -0.953560 0.079938 0.079938
v -0.953560 0.000000 0.113050
v -0.953560 0.000000 0.113050
v 1.568087 0.000000 0.113050
v 1.568087 -0.079938 0.079938
v 1.568087 -0.079938 0.079938
v 1.568087 -0.113050 0.000000
v 1.568087 -0.113050 0.000000
v 1.568087 -0.079938 -0.079938
v 1.568087 -0.079938 -0.079938
v 1.568087 0.000000 -0.113050
v 1.568087 0.000000 -0.113050
v 1.568087 0.079938 -0.079938
v 1.568087 0.079938 -0.079938
v 1.568087 0.113050 0.000000
v 1.568087 0.113050 0.000000
v 1.568087 0.079938 0.079938
v 1.568087 0.079938 0.079938
v 1.568087 0.000000 0.113050
v 1.514142 0.091907 0.037568
v -0.659322 0.091907 0.020155
v 1.514142 0.037568 -0.091907
v -0.659322 0.020155 -0.091907
v 1.514142 -0.091907 -0.037568
v -0.659322 -0.091907 0.020155
v 1.514142 -0.037568 0.091907
v -0.659322 0.020155 0.091907
vt 0.069796 0.468617
vt 0.107546 0.612141
vt 0.069794 0.615245
vt 0.032043 0.612140
vt 0.119627 0.728875
vt 0.069793 0.733155
vt 0.019959 0.728874
vt 0.513027 0.010310
vt 0.543984 0.986903
vt 0.513027 0.986903
vt 0.543984 0.010310
vt 0.574941 0.010310
vt 0.574941 0.986903
vt 0.327284 0.010310
vt 0.358241 0.986903
vt 0.327284 0.986903
vt 0.358241 0.010310
vt 0.389198 0.010310
vt 0.389198 0.986903
vt 0.420156 0.986903
vt 0.420156 0.010310
vt 0.451113 0.010310
vt 0.451113 0.986903
vt 0.482070 0.986903
vt 0.482070 0.010310
vt 0.134993 0.866807
vt 0.056830 0.866807
vt 0.079780 0.811630
vt 0.134993 0.788806
vt 0.190220 0.811630
vt 0.213090 0.866807
vt 0.190220 0.922018
vt 0.134993 0.944895
vt 0.079780 0.922018
vt 0.099305 0.388484
vt 0.193484 0.461912
vt 0.096888 0.461911
vt 0.251991 0.388485
vt 0.311360 0.396954
vt 0.014351 0.141205
vt 0.089645 0.119256
vt 0.090307 0.164477
vt 0.020053 0.021683
vt 0.072469 0.395824
vt 0.014350 0.175278
vt 0.069794 0.615245
vt 0.107546 0.612141
vt 0.069794 0.615245
vt 0.069794 0.615245
vt 0.032043 0.612140
vt 0.107546 0.612141
vt 0.069794 0.615245
vt 0.069794 0.615245
vt 0.032043 0.612140
vt 0.107546 0.612141
vt 0.069794 0.615245
vt 0.032043 0.612140
vt 0.032043 0.612140
vt 0.069794 0.615245
vt 0.019959 0.728874
vt 0.069794 0.615245
vt 0.069793 0.733155
vt 0.069794 0.615245
vt 0.119627 0.728875
vt 0.069793 0.733155
vt 0.069794 0.615245
vt 0.107546 0.612141
vt 0.119627 0.728875
vt 0.032043 0.612140
vt 0.069794 0.615245
vt 0.019959 0.728874
vt 0.019959 0.728874
vt 0.069794 0.615245
vt 0.069793 0.733155
vt 0.069794 0.615245
vt 0.119627 0.728875
vt 0.069793 0.733155
vt 0.069794 0.615245
vt 0.107546 0.612141
vt 0.119627 0.728875
vt 0.032043 0.612140
vt 0.069794 0.615245
vt 0.019959 0.728874
vt 0.019959 0.728874
vt 0.069794 0.615245
vt 0.069793 0.733155
vt 0.069794 0.615245
vt 0.119627 0.728875
vt 0.069793 0.733155
vt 0.069794 0.615245
vt 0.107546 0.612141
vt 0.119627 0.728875
vt 0.032043 0.612140
vt 0.019959 0.728874
vt 0.019959 0.728874
vt 0.513027 0.010310
vt 0.543984 0.010310
vt 0.574941 0.010310
vt 0.327284 0.010310
vt 0.358241 0.010310
vt 0.389198 0.010310
vt 0.389198 0.010310
vt 0.389198 0.010310
vt 0.420156 0.010310
vt 0.451113 0.010310
vt 0.451113 0.010310
vt 0.451113 0.010310
vt 0.482070 0.010310
vt 0.513027 0.010310
vt 0.513027 0.010310
vt 0.079780 0.811630
vt 0.134993 0.788806
vt 0.190220 0.811630
vt 0.213090 0.866807
vt 0.190220 0.922018
vt 0.134993 0.944895
vt 0.079780 0.922018
vt 0.056830 0.866807
vt 0.251991 0.388485
vt 0.099305 0.388484
vt 0.099305 0.388484
vt 0.251991 0.388485
vt 0.014351 0.141205
vt 0.014351 0.141205
vt 0.099305 0.388484
vt 0.193484 0.461912
vt 0.096888 0.461911
vt 0.193484 0.461912
vt 0.099305 0.388484
vt 0.251991 0.388485
vt 0.193484 0.461912
vt 0.251991 0.388485
vt 0.099305 0.388484
vt 0.099305 0.388484
vt 0.096888 0.461911
vt 0.193484 0.461912
vt 0.193484 0.461912
vt 0.311360 0.396954
vt 0.251991 0.388485
vt 0.193484 0.461912
vt 0.251991 0.388485
vt 0.311360 0.396954
vt 0.014351 0.141205
vt 0.089645 0.119256
vt 0.090307 0.164477
vt 0.089645 0.119256
vt 0.014351 0.141205
vt 0.020053 0.021683
vt 0.089645 0.119256
vt 0.020053 0.021683
vt 0.014351 0.141205
vt 0.014351 0.141205
vt 0.090307 0.164477
vt 0.089645 0.119256
vt 0.096888 0.461911
vt 0.072469 0.395824
vt 0.099305 0.388484
vt 0.090307 0.164477
vt 0.014350 0.175278
vt 0.014351 0.141205
vt 0.099305 0.388484
vt 0.193484 0.461912
vt 0.096888 0.461911
vt 0.193484 0.461912
vt 0.099305 0.388484
vt 0.251991 0.388485
vt 0.193484 0.461912
vt 0.251991 0.388485
vt 0.099305 0.388484
vt 0.099305 0.388484
vt 0.096888 0.461911
vt 0.193484 0.461912
vt 0.193484 0.461912
vt 0.311360 0.396954
vt 0.251991 0.388485
vt 0.193484 0.461912
vt 0.251991 0.388485
vt 0.311360 0.396954
vt 0.014351 0.141205
vt 0.089645 0.119256
vt 0.090307 0.164477
vt 0.089645 0.119256
vt 0.014351 0.141205
vt 0.020053 0.021683
vt 0.089645 0.119256
vt 0.020053 0.021683
vt 0.014351 0.141205
vt 0.014351 0.141205
vt 0.090307 0.164477
vt 0.089645 0.119256
vt 0.096888 0.461911
vt 0.072469 0.395824
vt 0.099305 0.388484
vt 0.090307 0.164477
vt 0.014351 0.141205
vt 0.014350 0.175278
vt 0.099305 0.388484
vt 0.193484 0.461912
vt 0.096888 0.461911
vt 0.193484 0.461912
vt 0.099305 0.388484
vt 0.251991 0.388485
vt 0.193484 0.461912
vt 0.251991 0.388485
vt 0.099305 0.388484
vt 0.099305 0.388484
vt 0.096888 0.461911
vt 0.193484 0.461912
vt 0.193484 0.461912
vt 0.311360 0.396954
vt 0.251991 0.388485
vt 0.193484 0.461912
vt 0.251991 0.388485
vt 0.311360 0.396954
vt 0.014351 0.141205
vt 0.089645 0.119256
vt 0.090307 0.164477
vt 0.089645 0.119256
vt 0.014351 0.141205
vt 0.020053 0.021683
vt 0.089645 0.119256
vt 0.020053 0.021683
vt 0.014351 0.141205
vt 0.014351 0.141205
vt 0.090307 0.164477
vt 0.089645 0.119256
vt 0.096888 0.461911
vt 0.072469 0.395824
vt 0.099305 0.388484
vt 0.090307 0.164477
vt 0.014351 0.141205
vt 0.014350 0.175278
vn -1.000000 0.000000 -0.000000
vn -0.205515 0.000000 0.978654
vn -0.205515 0.000000 0.978654
vn -1.000000 0.000000 -0.000000
vn -0.181952 -0.936599 -0.299459
vn -0.205515 0.000000 0.978654
vn -1.000000 0.000000 -0.000000
vn -0.181952 -0.936599 -0.299459
vn -0.181952 -0.936599 -0.299459
vn -1.000000 0.000000 -0.000000
vn -0.181952 0.299459 -0.936599
vn -0.181952 -0.936599 -0.299459
vn -1.000000 0.000000 -0.000000
vn -0.181952 0.299459 -0.936599
vn -0.181952 0.299459 -0.936599
vn -1.000000 0.000000 -0.000000
vn -0.161602 0.986856 -0.000000
vn -0.181952 0.299459 -0.936599
vn -1.000000 0.000000 -0.000000
vn -0.205515 0.000000 0.978654
vn -0.161602 0.986856 -0.000000
vn -1.000000 0.000000 -0.000000
vn -0.205515 0.000000 0.978654
vn -0.205515 0.000000 0.978654
vn -0.205515 0.000000 0.978654
vn -0.094714 0.000000 0.995505
vn -0.094714 0.000000 0.995505
vn -0.205515 0.000000 0.978654
vn -0.205515 0.000000 0.978654
vn -0.094714 0.000000 0.995505
vn -0.205515 0.000000 0.978654
vn -0.181952 -0.936599 -0.299459
vn -0.094714 0.000000 0.995505
vn -0.094714 0.000000 0.995505
vn -0.181952 -0.936599 -0.299459
vn -0.079601 -0.924697 -0.372289
vn -0.181952 -0.936599 -0.299459
vn -0.079601 -0.924697 -0.372289
vn -0.079601 -0.924697 -0.372289
vn -0.181952 -0.936599 -0.299459
vn -0.181952 -0.936599 -0.299459
vn -0.079601 -0.924697 -0.372289
vn -0.181952 -0.936599 -0.299459
vn -0.181952 0.299459 -0.936599
vn -0.079601 -0.924697 -0.372289
vn -0.079601 -0.924697 -0.372289
vn -0.181952 0.299459 -0.936599
vn -0.079601 0.372289 -0.924697
vn -0.181952 0.299459 -0.936599
vn -0.079601 0.372289 -0.924697
vn -0.079601 0.372289 -0.924697
vn -0.181952 0.299459 -0.936599
vn -0.181952 0.299459 -0.936599
vn -0.079601 0.372289 -0.924697
vn -0.181952 0.299459 -0.936599
vn -0.161602 0.986856 -0.000000
vn -0.079601 0.372289 -0.924697
vn -0.079601 0.372289 -0.924697
vn -0.161602 0.986856 -0.000000
vn -0.064681 0.997906 -0.000000
vn -0.161602 0.986856 -0.000000
vn -0.094714 0.000000 0.995505
vn -0.064681 0.997906 -0.000000
vn -0.161602 0.986856 -0.000000
vn -0.205515 0.000000 0.978654
vn -0.094714 0.000000 0.995505
vn -0.205515 0.000000 0.978654
vn -0.205515 0.000000 0.978654
vn -0.094714 0.000000 0.995505
vn -0.094714 0.000000 0.995505
vn -0.205515 0.000000 0.978654
vn -0.094714 0.000000 0.995505
vn -0.094714 0.000000 0.995505
vn 0.807638 0.000000 0.589678
vn 0.807638 0.000000 0.589678
vn -0.094714 0.000000 0.995505
vn -0.094714 0.000000 0.995505
vn 0.807638 0.000000 0.589678
vn -0.094714 0.000000 0.995505
vn -0.079601 -0.924697 -0.372289
vn 0.807638 0.000000 0.589678
vn 0.807638 0.000000 0.589678
vn -0.079601 -0.924697 -0.372289
vn 0.818258 -0.491451 -0.298212
vn -0.079601 -0.924697 -0.372289
vn 0.818258 -0.491451 -0.298212
vn 0.818258 -0.491451 -0.298212
vn -0.079601 -0.924697 -0.372289
vn -0.079601 -0.924697 -0.372289
vn 0.818258 -0.491451 -0.298212
vn -0.079601 -0.924697 -0.372289
vn -0.079601 0.372289 -0.924697
vn 0.818258 -0.491451 -0.298212
vn 0.818258 -0.491451 -0.298212
vn -0.079601 0.372289 -0.924697
vn 0.818258 0.298212 -0.491450
vn -0.079601 0.372289 -0.924697
vn 0.818258 0.298212 -0.491450
vn 0.818258 0.298212 -0.491450
vn -0.079601 0.372289 -0.924697
vn -0.079601 0.372289 -0.924697
vn 0.818258 0.298212 -0.491450
vn -0.079601 0.372289 -0.924697
vn -0.064681 0.997906 -0.000000
vn 0.818258 0.298212 -0.491450
vn 0.818258 0.298212 -0.491450
vn -0.064681 0.997906 -0.000000
vn 0.944388 0.328832 0.000000
vn -0.064681 0.997906 -0.000000
vn 0.807638 0.000000 0.589678
vn 0.944388 0.328832 0.000000
vn -0.064681 0.997906 -0.000000
vn -0.094714 0.000000 0.995505
vn 0.807638 0.000000 0.589678
vn -0.094714 0.000000 0.995505
vn -0.094714 0.000000 0.995505
vn 0.807638 0.000000 0.589678
vn 0.807638 0.000000 0.589678
vn -0.094714 0.000000 0.995505
vn 0.807638 0.000000 0.589678
vn 1.000000 -0.000000 0.000000
vn 0.807638 0.000000 0.589678
vn 0.807638 0.000000 0.589678
vn 1.000000 -0.000000 0.000000
vn 0.807638 0.000000 0.589678
vn 0.818258 -0.491451 -0.298212
vn 1.000000 -0.000000 0.000000
vn 0.818258 -0.491451 -0.298212
vn 0.818258 -0.491451 -0.298212
vn 1.000000 -0.000000 0.000000
vn 0.818258 -0.491451 -0.298212
vn 0.818258 0.298212 -0.491450
vn 1.000000 -0.000000 0.000000
vn 0.818258 0.298212 -0.491450
vn 0.818258 0.298212 -0.491450
vn 1.000000 -0.000000 0.000000
vn 0.818258 0.298212 -0.491450
vn 0.944388 0.328832 0.000000
vn 1.000000 -0.000000 0.000000
vn 0.944388 0.328832 0.000000
vn 0.807638 0.000000 0.589678
vn 1.000000 -0.000000 0.000000
vn 0.807638 0.000000 0.589678
vn 0.807638 0.000000 0.589678
vn 0.944388 0.328832 0.000000
vn -0.235774 0.971808 0.000000
vn 0.987604 0.156967 0.000000
vn -0.235774 0.971808 0.000000
vn 0.944388 0.328832 0.000000
vn -0.155908 0.975807 -0.153279
vn -0.235774 0.971808 0.000000
vn -0.155908 0.975807 -0.153279
vn 0.944388 0.328832 0.000000
vn 0.944388 0.328832 0.000000
vn 0.987604 0.156967 0.000000
vn -0.235774 0.971808 0.000000
vn -0.235774 0.971808 0.000000
vn -0.490415 0.871489 -0.000000
vn -0.155908 0.975807 -0.153279
vn -0.235774 0.971808 0.000000
vn -0.155908 0.975807 -0.153279
vn -0.490415 0.871489 -0.000000
vn 0.999488 -0.031987 0.000000
vn 0.814870 0.579644 0.000000
vn 0.814870 0.579644 0.000000
vn 0.814870 0.579644 0.000000
vn 0.999488 -0.031987 0.000000
vn -0.064681 0.997906 -0.000000
vn 0.814870 0.579644 0.000000
vn -0.064681 0.997906 -0.000000
vn 0.999488 -0.031987 0.000000
vn 0.999488 -0.031987 0.000000
vn 0.814870 0.579644 0.000000
vn 0.814870 0.579644 0.000000
vn 0.987604 0.156967 0.000000
vn 0.944388 0.328832 0.000000
vn 0.944388 0.328832 0.000000
vn 0.814870 0.579644 0.000000
vn 0.999488 -0.031987 0.000000
vn 0.999488 -0.031987 0.000000
vn 0.818258 0.298212 -0.491450
vn -0.235774 -0.000000 -0.971808
vn 0.987605 0.000000 -0.156963
vn -0.235774 -0.000000 -0.971808
vn 0.818258 0.298212 -0.491450
vn -0.088999 -0.704301 -0.704301
vn -0.235774 -0.000000 -0.971808
vn -0.155908 0.975807 -0.153279
vn 0.818258 0.298212 -0.491450
vn 0.818258 0.298212 -0.491450
vn 0.987605 0.000000 -0.156963
vn -0.235774 -0.000000 -0.971808
vn -0.235774 -0.000000 -0.971808
vn -0.490414 0.000000 -0.871489
vn -0.155908 0.975807 -0.153279
vn -0.235774 -0.000000 -0.971808
vn -0.088999 -0.704301 -0.704301
vn -0.490414 0.000000 -0.871489
vn 0.999488 0.000000 0.031987
vn 0.814870 0.000000 -0.579644
vn 0.814870 0.000000 -0.579644
vn 0.814870 0.000000 -0.579644
vn 0.999488 0.000000 0.031987
vn -0.079601 0.372289 -0.924697
vn 0.814870 0.000000 -0.579644
vn -0.079601 0.372289 -0.924697
vn 0.999488 0.000000 0.031987
vn 0.999488 0.000000 0.031987
vn 0.814870 0.000000 -0.579644
vn 0.814870 0.000000 -0.579644
vn 0.987605 0.000000 -0.156963
vn 0.818258 0.298212 -0.491450
vn 0.818258 0.298212 -0.491450
vn 0.814870 0.000000 -0.579644
vn 0.999488 0.000000 0.031987
vn 0.999488 0.000000 0.031987
vn 0.818258 -0.491451 -0.298212
vn -0.235774 -0.971808 -0.000000
vn 0.987604 -0.156967 0.000000
vn -0.235774 -0.971808 -0.000000
vn 0.818258 -0.491451 -0.298212
vn -0.088999 -0.704301 0.704301
vn -0.235774 -0.971808 -0.000000
vn -0.088999 -0.704301 -0.704301
vn 0.818258 -0.491451 -0.298212
vn 0.818258 -0.491451 -0.298212
vn 0.987604 -0.156967 0.000000
vn -0.235774 -0.971808 -0.000000
vn -0.235774 -0.971808 -0.000000
vn -0.490415 -0.871489 -0.000000
vn -0.088999 -0.704301 -0.704301
vn -0.235774 -0.971808 -0.000000
vn -0.088999 -0.704301 0.704301
vn -0.490415 -0.871489 -0.000000
vn 0.999488 0.031987 0.000000
vn 0.814870 -0.579644 0.000000
vn 0.814870 -0.579644 0.000000
vn 0.814870 -0.579644 0.000000
vn 0.999488 0.031987 0.000000
vn -0.079601 -0.924697 -0.372289
vn 0.814870 -0.579644 0.000000
vn -0.079601 -0.924697 -0.372289
vn 0.999488 0.031987 0.000000
vn 0.999488 0.031987 0.000000
vn 0.814870 -0.579644 0.000000
vn 0.814870 -0.579644 0.000000
vn 0.987604 -0.156967 0.000000
vn 0.818258 -0.491451 -0.298212
vn 0.818258 -0.491451 -0.298212
vn 0.814870 -0.579644 0.000000
vn 0.999488 0.031987 0.000000
vn 0.999488 0.031987 0.000000
vn 0.807638 0.000000 0.589678
vn -0.235774 -0.000000 0.971808
vn 0.987604 0.000000 0.156967
vn -0.235774 -0.000000 0.971808
vn 0.807638 0.000000 0.589678
vn -0.075478 0.971981 0.222614
vn -0.235774 -0.000000 0.971808
vn -0.088999 -0.704301 0.704301
vn 0.807638 0.000000 0.589678
vn 0.807638 0.000000 0.589678
vn 0.987604 0.000000 0.156967
vn -0.235774 -0.000000 0.971808
vn -0.235774 -0.000000 0.971808
vn -0.490414 0.000000 0.871489
vn -0.088999 -0.704301 0.704301
vn -0.235774 -0.000000 0.971808
vn -0.075478 0.971981 0.222614
vn -0.490414 0.000000 0.871489
vn 0.999488 -0.000000 -0.031987
vn 0.814870 -0.000000 0.579644
vn 0.814870 -0.000000 0.579644
vn 0.814870 -0.000000 0.579644
vn 0.999488 -0.000000 -0.031987
vn -0.094714 0.000000 0.995505
vn 0.814870 -0.000000 0.579644
vn -0.094714 0.000000 0.995505
vn 0.999488 -0.000000 -0.031987
vn 0.999488 -0.000000 -0.031987
vn 0.814870 -0.000000 0.579644
vn 0.814870 -0.000000 0.579644
vn 0.987604 0.000000 0.156967
vn 0.807638 0.000000 0.589678
vn 0.807638 0.000000 0.589678
vn 0.814870 -0.000000 0.579644
vn 0.999488 -0.000000 -0.031987
vn 0.999488 -0.000000 -0.031987
s off
g rocket_Mesh
usemtl rocket_rockets
f 1/1/1 3/2/2 2/3/3
f 1/1/4 4/46/5 75/4/6
f 1/1/7 5/47/8 4/48/9
f 1/1/10 6/49/11 76/50/12
f 1/1/13 7/51/14 6/52/15
f 1/1/16 8/53/17 77/54/18
f 1/1/19 9/55/20 8/56/21
f 1/1/22 2/3/23 78/57/24
f 2/3/25 11/5/26 10/6/27
f 2/3/28 3/2/29 11/5/30
f 79/58/31 4/59/32 80/7/33
f 81/60/34 4/61/35 12/62/36
f 4/63/37 13/64/38 12/65/39
f 4/66/40 5/67/41 13/68/42
f 82/69/43 6/70/44 83/71/45
f 84/72/46 6/73/47 14/74/48
f 6/75/49 15/76/50 14/77/51
f 6/78/52 7/79/53 15/80/54
f 85/81/55 8/82/56 86/83/57
f 87/84/58 8/85/59 16/86/60
f 8/87/61 17/88/62 16/89/63
f 8/90/64 9/91/65 17/92/66
f 88/93/67 2/3/68 89/94/69
f 90/95/70 2/3/71 10/6/72
f 91/8/73 19/9/74 18/10/75
f 92/96/76 93/11/77 19/9/78
f 94/97/79 95/12/80 19/9/81
f 19/9/82 96/98/83 20/13/84
f 97/14/85 21/15/86 98/16/87
f 99/99/88 100/17/89 21/15/90
f 101/100/91 102/18/92 21/15/93
f 21/15/94 103/101/95 22/19/96
f 104/102/97 23/20/98 22/19/99
f 105/103/100 106/21/101 23/20/102
f 107/104/103 108/22/104 23/20/105
f 23/20/106 109/105/107 24/23/108
f 110/106/109 25/24/110 24/23/111
f 111/107/112 112/25/113 25/24/114
f 113/108/115 114/109/116 25/24/117
f 25/24/118 115/110/119 18/10/120
f 26/26/121 116/27/122 117/28/123
f 26/26/124 118/111/125 119/29/126
f 26/26/127 120/112/128 121/30/129
f 26/26/130 122/113/131 123/31/132
f 26/26/133 124/114/134 125/32/135
f 26/26/136 126/115/137 127/33/138
f 26/26/139 128/116/140 129/34/141
f 26/26/142 130/117/143 131/118/144
f 30/35/145 28/36/146 29/37/147
f 28/36/148 30/35/149 27/38/150
f 28/36/151 31/119/152 32/120/153
f 32/121/154 29/37/155 28/36/156
f 28/36/157 33/39/158 31/122/159
f 28/36/160 27/38/161 33/39/162
f 37/40/163 35/41/164 36/42/165
f 35/41/166 37/40/167 34/43/168
f 35/41/169 34/43/170 38/123/171
f 38/124/172 36/42/173 35/41/174
f 29/37/175 132/44/176 30/35/177
f 36/42/178 133/45/179 37/40/180
f 42/125/181 40/126/182 41/127/183
f 40/128/184 42/129/185 39/130/186
f 40/131/187 43/132/188 44/133/189
f 44/134/190 41/135/191 40/136/192
f 40/137/193 45/138/194 43/139/195
f 40/140/196 39/141/197 45/142/198
f 49/143/199 47/144/200 48/145/201
f 47/146/202 49/147/203 46/148/204
f 47/149/205 46/150/206 50/151/207
f 50/152/208 48/153/209 47/154/210
f 41/155/211 134/156/212 42/157/213
f 48/158/214 135/159/215 49/160/216
f 54/161/217 52/162/218 53/163/219
f 52/164/220 54/165/221 51/166/222
f 52/167/223 55/168/224 56/169/225
f 56/170/226 53/171/227 52/172/228
f 52/173/229 57/174/230 55/175/231
f 52/176/232 51/177/233 57/178/234
f 61/179/235 59/180/236 60/181/237
f 59/182/238 61/183/239 58/184/240
f 59/185/241 58/186/242 62/187/243
f 62/188/244 60/189/245 59/190/246
f 53/191/247 136/192/248 54/193/249
f 60/194/250 62/195/251 137/196/252
f 66/197/253 64/198/254 65/199/255
f 64/200/256 66/201/257 63/202/258
f 64/203/259 67/204/260 68/205/261
f 68/206/262 65/207/263 64/208/264
f 64/209/265 69/210/266 67/211/267
f 64/212/268 63/213/269 69/214/270
f 73/215/271 71/216/272 72/217/273
f 71/218/274 73/219/275 70/220/276
f 71/221/277 70/222/278 74/223/279
f 74/224/280 72/225/281 71/226/282
f 65/227/283 138/228/284 66/229/285
f 72/230/286 74/231/287 139/232/288
